<?xml version="1.0" encoding="UTF-8"?>
<svg version="1.1" xmlns="http://www.w3.org/2000/svg" width="602" height="402">
<path d="M0 0 C0.83948759 -0.00557324 1.67897519 -0.01114649 2.5439018 -0.01688862 C3.9275579 -0.00306031 3.9275579 -0.00306031 5.33916664 0.01104736 C6.31921626 0.00903981 7.29926587 0.00703226 8.30901396 0.00496387 C11.60900679 0.00201435 14.90852336 0.02073297 18.20845985 0.03936768 C20.56888672 0.04188994 22.92931521 0.04315693 25.28974342 0.04325867 C31.04963295 0.04731919 36.80934264 0.06577695 42.5691732 0.09163696 C47.25999045 0.11254687 51.95079731 0.12828006 56.64164543 0.14035034 C57.99366081 0.14386875 59.34567619 0.14738813 60.69769156 0.15090847 C61.37075365 0.15266012 62.04381574 0.15441177 62.73727365 0.1562165 C75.48106103 0.19021451 88.22470776 0.24420479 100.96839626 0.3039912 C112.58406678 0.35783311 124.19962748 0.38568473 135.81540696 0.40112758 C147.76558079 0.41727597 159.71557519 0.45199257 171.66563952 0.50600624 C178.36488356 0.53594901 185.06393359 0.55831825 191.76325035 0.56195068 C198.08192535 0.5661456 204.40005929 0.59457964 210.71856308 0.64067268 C213.02211991 0.65357566 215.32574131 0.65831582 217.62932968 0.65371513 C258.83764599 0.58921485 295.37684312 18.03251799 324.89449501 46.36749268 C331.89449501 53.66802935 331.89449501 53.66802935 331.89449501 56.36749268 C332.55449501 56.36749268 333.21449501 56.36749268 333.89449501 56.36749268 C335.56070593 58.54240054 337.08463558 60.70436468 338.58199501 62.99249268 C339.02897743 63.67255371 339.47595985 64.35261475 339.9364872 65.05328369 C361.01951396 97.7107862 368.05417145 139.05341757 360.39498329 177.1038208 C352.17234479 214.29421308 328.33130038 243.69807568 296.69527626 264.12921143 C282.87802513 272.7251748 267.6581594 279.29554868 251.89449501 283.36749268 C251.29084681 283.52438631 250.6871986 283.68127995 250.06525803 283.84292793 C223.54515812 290.26290131 193.70234523 287.63829127 166.63985109 287.57028055 C160.72228567 287.55759654 154.80471719 287.55658902 148.88714027 287.55422974 C137.73209042 287.54806601 126.57708077 287.53172597 115.42204845 287.51153076 C102.70092329 287.48901066 89.97979599 287.47813823 77.25865579 287.46813989 C51.13724676 287.4473539 25.01587316 287.41227969 -1.10550499 287.36749268 C-1.43550499 286.37749268 -1.76550499 285.38749268 -2.10550499 284.36749268 C-1.37589561 284.24374268 -0.64628624 284.11999268 0.10543251 283.99249268 C13.45879543 281.35479136 26.3412424 275.53522491 37.89449501 268.36749268 C38.56738564 267.95499268 39.24027626 267.54249268 39.93355751 267.11749268 C50.20717926 260.54237476 59.9067035 252.87506589 68.22262001 243.94952393 C69.89449501 242.36749268 69.89449501 242.36749268 71.89449501 242.36749268 C72.22449501 241.37749268 72.55449501 240.38749268 72.89449501 239.36749268 C73.55449501 239.36749268 74.21449501 239.36749268 74.89449501 239.36749268 C75.17140175 238.78354736 75.44830849 238.19960205 75.73360634 237.59796143 C76.84231809 235.46774259 78.05687362 233.61901804 79.46871376 231.67999268 C79.96798378 230.98784668 80.4672538 230.29570068 80.98165321 229.58258057 C81.50976601 228.85160156 82.0378788 228.12062256 82.58199501 227.36749268 C97.7548436 206.00634261 104.92253009 185.18526467 108.89449501 159.36749268 C91.40449501 159.36749268 73.91449501 159.36749268 55.89449501 159.36749268 C55.56449501 162.00749268 55.23449501 164.64749268 54.89449501 167.36749268 C53.15550246 174.58196177 51.08918434 181.65864508 47.89449501 188.36749268 C47.23449501 188.36749268 46.57449501 188.36749268 45.89449501 188.36749268 C45.79781532 189.07905518 45.70113564 189.79061768 45.60152626 190.52374268 C44.7817392 193.82100777 43.44244278 196.031007 41.58199501 198.86749268 C40.9877372 199.78530518 40.39347939 200.70311768 39.78121376 201.64874268 C37.91793746 204.33371225 36.05235238 206.91153955 33.89449501 209.36749268 C33.23449501 209.36749268 32.57449501 209.36749268 31.89449501 209.36749268 C31.66375282 209.92952393 31.43301064 210.49155518 31.19527626 211.07061768 C26.02030122 220.20841144 14.71719129 226.44714283 5.89449501 231.36749268 C4.90449501 231.92436768 3.91449501 232.48124268 2.89449501 233.05499268 C-4.49847006 236.9874209 -11.98433474 239.3941242 -20.10550499 241.36749268 C-20.96144249 241.59436768 -21.81737999 241.82124268 -22.69925499 242.05499268 C-50.99082097 248.50117227 -77.39034749 238.59760447 -101.08597374 223.88311768 C-102.08564171 223.1328833 -102.08564171 223.1328833 -103.10550499 222.36749268 C-103.10550499 221.70749268 -103.10550499 221.04749268 -103.10550499 220.36749268 C-103.66237999 220.14061768 -104.21925499 219.91374268 -104.79300499 219.67999268 C-114.65787182 214.0810142 -122.88207417 202.21649175 -128.10550499 192.36749268 C-128.53347374 191.60178955 -128.96144249 190.83608643 -129.40237999 190.04718018 C-141.6756476 167.09162409 -143.31883313 140.29210292 -135.96878624 115.53936768 C-130.95876919 100.93603724 -123.44715063 87.88119149 -113.10550499 76.36749268 C-112.44550499 76.36749268 -111.78550499 76.36749268 -111.10550499 76.36749268 C-110.89925499 75.80803955 -110.69300499 75.24858643 -110.48050499 74.67218018 C-108.60661684 71.5312881 -105.99424692 69.64029909 -103.10550499 67.49249268 C-102.51882042 67.05195557 -101.93213585 66.61141846 -101.32767296 66.15753174 C-79.24089655 49.7804668 -53.36280965 43.85828352 -26.16800499 46.99249268 C-6.50767902 50.25795346 11.20151553 58.93591366 25.89449501 72.36749268 C27.09525673 73.46384033 27.09525673 73.46384033 28.32027626 74.58233643 C36.19639872 82.11429219 41.85644826 90.75573528 46.89449501 100.36749268 C50.19612179 98.79824889 53.24740043 96.95191614 56.33199501 94.99249268 C57.25883095 94.4072583 58.18566689 93.82202393 59.14058876 93.21905518 C61.85531789 91.39383304 64.36813329 89.44373217 66.89449501 87.36749268 C68.3900366 86.15364557 69.88990466 84.94510538 71.39449501 83.74249268 C72.12668251 83.15210205 72.85887001 82.56171143 73.61324501 81.95343018 C75.96431973 80.31895015 78.2045397 79.32413171 80.89449501 78.36749268 C80.89449501 77.70749268 80.89449501 77.04749268 80.89449501 76.36749268 C82.42574501 75.07843018 82.42574501 75.07843018 84.39449501 73.74249268 C85.04418251 73.29647705 85.69387001 72.85046143 86.36324501 72.39093018 C87.12121376 71.88432861 87.12121376 71.88432861 87.89449501 71.36749268 C87.35991349 66.82354974 85.49579154 64.07236956 82.89449501 60.36749268 C82.20020122 59.04833448 81.51919006 57.72099861 80.89449501 56.36749268 C80.23449501 56.36749268 79.57449501 56.36749268 78.89449501 56.36749268 C74.89449501 51.89690444 74.89449501 51.89690444 74.89449501 49.36749268 C73.96637001 48.99624268 73.96637001 48.99624268 73.01949501 48.61749268 C70.49090874 47.13008899 70.17610497 45.93071259 68.89449501 43.36749268 C67.56289176 42.697377 66.22925284 42.03130272 64.89449501 41.36749268 C63.50698088 40.26227509 62.15317518 39.11370901 60.83199501 37.92999268 C60.16039345 37.33315674 59.48879189 36.7363208 58.79683876 36.12139893 C57.8551786 35.25321533 57.8551786 35.25321533 56.89449501 34.36749268 C56.31828407 33.84026611 55.74207314 33.31303955 55.14840126 32.76983643 C53.89449501 31.36749268 53.89449501 31.36749268 53.89449501 29.36749268 C52.90449501 29.05811768 52.90449501 29.05811768 51.89449501 28.74249268 C49.25620328 27.53327563 47.56664685 26.39961586 45.33199501 24.61749268 C40.26308062 20.70147047 34.6817408 18.05938872 28.89449501 15.36749268 C28.11114784 14.98391602 27.32780067 14.60033936 26.52071571 14.20513916 C19.42811842 10.82081166 12.29168267 8.56780082 4.70699501 6.55499268 C2.99286415 6.08802979 2.99286415 6.08802979 1.24410439 5.6116333 C-1.53696894 4.85527445 -4.32001922 4.10740237 -7.10550499 3.36749268 C-4.81999949 0.65255945 -3.5361641 -0.00714666 0 0 Z M159.89449501 56.36749268 C159.89449501 114.11749268 159.89449501 171.86749268 159.89449501 231.36749268 C204.64545325 235.10317649 204.64545325 235.10317649 251.01949501 224.67999268 C251.68763222 224.33549072 252.35576942 223.99098877 253.04415321 223.63604736 C259.07835415 220.44040524 264.55736144 216.62289566 269.89449501 212.36749268 C270.74914345 211.70620361 271.60379189 211.04491455 272.48433876 210.36358643 C276.07424346 207.39042386 278.91505703 203.93641085 281.89449501 200.36749268 C282.46297157 199.72167236 283.03144814 199.07585205 283.61715126 198.41046143 C298.27471934 180.94825618 303.46074493 158.49984786 301.54683876 136.14483643 C299.97300281 119.3783783 295.4551749 104.43690229 285.89449501 90.36749268 C285.23449501 90.36749268 284.57449501 90.36749268 283.89449501 90.36749268 C282.89449501 88.36749268 281.89449501 86.36749268 280.89449501 84.36749268 C280.23449501 84.36749268 279.57449501 84.36749268 278.89449501 84.36749268 C278.89449501 83.70749268 278.89449501 83.04749268 278.89449501 82.36749268 C278.23449501 82.36749268 277.57449501 82.36749268 276.89449501 82.36749268 C276.68051064 81.79514893 276.46652626 81.22280518 276.24605751 80.63311768 C269.3693479 69.10568538 248.03218952 61.62597609 235.85933876 58.05889893 C211.19327628 52.30673416 185.22238552 56.36749268 159.89449501 56.36749268 Z " fill="#010101" transform="translate(210.10550498962402,47.63250732421875)"/>
<path d="M0 0 C1.32 0 2.64 0 4 0 C4 0.66 4 1.32 4 2 C21.16 2 38.32 2 56 2 C56 2.33 56 2.66 56 3 C37.85 3 19.7 3 1 3 C0.67 2.01 0.34 1.02 0 0 Z " fill="#3F373D" transform="translate(208,332)"/>
<path d="M0 0 C1.125 3.75 1.125 3.75 0 6 C-1.0828125 6.61875 -1.0828125 6.61875 -2.1875 7.25 C-5.15938588 9.09917343 -7.21677386 11.13822457 -9.5703125 13.6953125 C-11 15 -11 15 -14 16 C-15.21869929 18.50447516 -15.21869929 18.50447516 -16 21 C-17.65 20.67 -19.3 20.34 -21 20 C-17.23225289 16.11807874 -13.37202211 12.20468119 -9 9 C-8.34 9 -7.68 9 -7 9 C-6.67 8.01 -6.34 7.02 -6 6 C-4.37446717 4.29319053 -2.70884005 2.62339805 -1 1 C-0.67 0.67 -0.34 0.34 0 0 Z " fill="#272225" transform="translate(492,247)"/>
<path d="M0 0 C5.94 0 11.88 0 18 0 C18 0.66 18 1.32 18 2 C16.35 2.66 14.7 3.32 13 4 C13.99 4.33 14.98 4.66 16 5 C10.34979382 4.39891424 5.33835539 2.92471317 0 1 C0 0.67 0 0.34 0 0 Z " fill="#1F161C" transform="translate(205,50)"/>
<path d="M0 0 C0.66 0.33 1.32 0.66 2 1 C-2.60082988 7.006639 -2.60082988 7.006639 -7 8 C-8.37868281 9.62935241 -9.71274093 11.29749607 -11 13 C-11.99 13.66 -12.98 14.32 -14 15 C-14 11 -14 11 -12.71484375 9.53613281 C-12.12832031 9.09624023 -11.54179688 8.65634766 -10.9375 8.203125 C-10.30585937 7.71972656 -9.67421875 7.23632812 -9.0234375 6.73828125 C-8.02183594 6.00158203 -8.02183594 6.00158203 -7 5.25 C-6.33226563 4.74339844 -5.66453125 4.23679687 -4.9765625 3.71484375 C-3.32619219 2.46527765 -1.66416124 1.2311397 0 0 Z " fill="#171213" transform="translate(114,110)"/>
<path d="M0 0 C-0.33 0.99 -0.66 1.98 -1 3 C-0.34 3.33 0.32 3.66 1 4 C-2.96 4 -6.92 4 -11 4 C-11 3.34 -11 2.68 -11 2 C-9.54494642 1.47007308 -8.08581873 0.9513211 -6.625 0.4375 C-5.81289062 0.14746094 -5.00078125 -0.14257812 -4.1640625 -0.44140625 C-2 -1 -2 -1 0 0 Z " fill="#0D050B" transform="translate(223,330)"/>
<path d="M0 0 C0.66 0.33 1.32 0.66 2 1 C0.15426347 4.50689941 -1.12369984 6.74958059 -5 8 C-5.66 7.67 -6.32 7.34 -7 7 C-7 6.34 -7 5.68 -7 5 C-7.66 4.67 -8.32 4.34 -9 4 C-7.54618103 3.30300448 -6.08677047 2.61766134 -4.625 1.9375 C-3.40683594 1.36322266 -3.40683594 1.36322266 -2.1640625 0.77734375 C-1.44992187 0.52082031 -0.73578125 0.26429688 0 0 Z " fill="#181518" transform="translate(462,271)"/>
<path d="M0 0 C3.68754757 0.49831724 5.60490662 1.10067643 8 4 C4.25 6 4.25 6 2 6 C1.67 5.01 1.34 4.02 1 3 C1.33 2.34 1.66 1.68 2 1 C1.34 0.67 0.68 0.34 0 0 Z " fill="#191417" transform="translate(487,62)"/>
<path d="M0 0 C-1.24976756 3.65316671 -1.67098753 4.78065836 -5 7 C-5 6.01 -5 5.02 -5 4 C-5.66 3.67 -6.32 3.34 -7 3 C-2.25 0 -2.25 0 0 0 Z " fill="#141213" transform="translate(552,267)"/>
<path d="M0 0 C0 0.99 0 1.98 0 3 C-2.31 3 -4.62 3 -7 3 C-7 2.34 -7 1.68 -7 1 C-3.375 -1.125 -3.375 -1.125 0 0 Z " fill="#1F141C" transform="translate(219,331)"/>
<path d="M0 0 C0 3 0 3 -2.5 5.6875 C-3.325 6.450625 -4.15 7.21375 -5 8 C-5.99 7.67 -6.98 7.34 -8 7 C-5.36 4.69 -2.72 2.38 0 0 Z " fill="#211B1D" transform="translate(272,298)"/>
<path d="M0 0 C0.66 0.33 1.32 0.66 2 1 C1.01 2.98 0.02 4.96 -1 7 C-2.65 6.67 -4.3 6.34 -6 6 C-4 4 -2 2 0 0 Z " fill="#322F30" transform="translate(477,261)"/>
<path d="M0 0 C1.32 0 2.64 0 4 0 C2.95125002 2.62187494 2.35068687 3.79371361 -0.125 5.25 C-0.74375 5.4975 -1.3625 5.745 -2 6 C-1.34 4.02 -0.68 2.04 0 0 Z " fill="#0D0A0B" transform="translate(517,299)"/>
<path d="M0 0 C-0.8125 1.9375 -0.8125 1.9375 -2 4 C-2.99 4.33 -3.98 4.66 -5 5 C-5.99 4.34 -6.98 3.68 -8 3 C-2.25 0 -2.25 0 0 0 Z " fill="#201D20" transform="translate(239,322)"/>
</svg>
