<?xml version="1.0" encoding="UTF-8"?>
<svg version="1.1" xmlns="http://www.w3.org/2000/svg" width="590" height="336">
<path d="M0 0 C30.65853941 -0.16025213 61.31698154 -0.28385662 91.97584071 -0.35745731 C95.60881312 -0.36621054 99.24178469 -0.37527097 102.87475586 -0.38452148 C103.5979081 -0.38635766 104.32106035 -0.38819383 105.06612629 -0.39008565 C116.72144765 -0.42040971 128.37652327 -0.47552551 140.03169965 -0.54006957 C152.0223666 -0.60590962 164.01290632 -0.6444908 176.00374657 -0.65861946 C182.72573278 -0.66729932 189.44713124 -0.68877651 196.16894341 -0.7401104 C202.51628397 -0.78818447 208.86285041 -0.80216914 215.21035576 -0.79175377 C217.52036774 -0.79365477 219.83040995 -0.80724093 222.1402626 -0.83443832 C245.44391672 -1.09500009 266.20867704 4.6398013 287 15 C287.64582031 15.31018066 288.29164063 15.62036133 288.95703125 15.93994141 C302.09971367 22.26703215 316.11970282 31.1446735 326 42 C326 42.66 326 43.32 326 44 C326.99 44.33 327.98 44.66 329 45 C332.24074671 48.4644669 335.0878397 52.25782659 338 56 C338.68835938 56.86238281 339.37671875 57.72476563 340.0859375 58.61328125 C358.95874337 83.19268653 366.1716943 114.88653048 366.1875 145.3125 C366.19974609 146.54162109 366.21199219 147.77074219 366.22460938 149.03710938 C366.26697227 175.79633761 357.96946459 201.50387966 342 223 C341.41089844 223.81082031 340.82179688 224.62164062 340.21484375 225.45703125 C319.79627863 252.29162108 290.0801533 270.49887425 257.9375 279.875 C257.30328125 280.06618408 256.6690625 280.25736816 256.015625 280.4543457 C241.37024907 284.41600621 225.62657505 284.3842894 210.5625 284.625 C209.54914581 284.643349 208.53579163 284.661698 207.49172974 284.68060303 C139.34163643 285.89100625 71.14773508 284.83834738 3 284 C6.22453648 282.31278404 9.46169246 281.17859111 12.93896484 280.09814453 C32.33884806 274.02773949 48.55789216 264.2295754 64 251 C64.82113281 250.31421875 65.64226562 249.6284375 66.48828125 248.921875 C93.83000009 225.37398317 109.57532016 191.39743872 114 156 C95.85 156 77.7 156 59 156 C58.67 158.97 58.34 161.94 58 165 C54.9677613 180.44997815 47.34509486 194.24944682 37 206 C36.236875 207.010625 35.47375 208.02125 34.6875 209.0625 C21.31445395 223.67955033 3.15441772 233.55224139 -16 238 C-16.95003906 238.22558594 -17.90007812 238.45117188 -18.87890625 238.68359375 C-43.18735895 243.58585472 -69.15852547 238.2683538 -90 225 C-112.27184532 209.89008141 -128.35921327 187.88806858 -133.74609375 161.3203125 C-137.86710208 134.43428574 -133.16550624 107.40116239 -116.91796875 85.1484375 C-114.99678441 82.71665159 -113.01382288 80.3551488 -111 78 C-110.5565625 77.4121875 -110.113125 76.824375 -109.65625 76.21875 C-95.88425512 58.41592734 -71.76338218 47.89869425 -50 45 C-35.38066944 43.93733043 -20.95238994 44.28505443 -7 49 C-6.34467285 49.21962402 -5.6893457 49.43924805 -5.01416016 49.66552734 C19.94864601 58.30015283 38.36397124 76.24935189 51 99 C57.20887697 95.71717689 62.96384238 92.08914164 68.625 87.9375 C69.39118652 87.3803833 70.15737305 86.8232666 70.94677734 86.24926758 C78.48159844 80.72762004 85.77280061 74.9160703 93 69 C91.07905987 53.76968894 69.19573658 36.08119611 58 27 C54.75617693 24.51324423 51.43264384 22.21777742 48 20 C47.1440625 19.43667969 46.288125 18.87335937 45.40625 18.29296875 C31.52332561 9.65513798 15.92219696 4.3801312 0 1 C0 0.67 0 0.34 0 0 Z M163 53 C163 111.41 163 169.82 163 230 C230.21146673 234.18036694 230.21146673 234.18036694 281 205 C281.83402344 204.19046875 282.66804688 203.3809375 283.52734375 202.546875 C300.13751492 185.45042763 307.1161656 163.15023005 307.03125 139.64453125 C306.4227781 116.00297496 297.6912457 95.28158931 281.8828125 77.765625 C280.18704662 75.77198607 280.18704662 75.77198607 278 76 C278 75.34 278 74.68 278 74 C246.62491214 46.09427282 200.92740888 53 163 53 Z " fill="#FFFFFF" transform="translate(191,31)"/>
</svg>
